#!OML:ASF X:\für Bonn\!DataBase\2005_08_12_Daniel\c3d\Daniel.ASF
:FULLY-SPECIFIED
:DEGREES
199
root -0.517278 17.7409 0.205885 -29.8405 -82.666 20.2319
lowerback 9.00839 1.18919 1.45913
upperback -4.51894 1.28233 -4.63311
thorax -9.78122 0.305507 -6.04097
lowerneck 13.4724 -2.95507 0.509458
upperneck 6.13232 -4.1867 2.16296
head -0.264761 -2.24781 0.758513
rclavicle -1.59028e-014 -2.14687e-014
rhumerus -89.4967 -179.836 29.258
rradius 7.87439
rwrist 115.067
rhand -13.804 368.783
rfingers 7.12502
rthumb 12.3181 -20.8338
lclavicle -1.59028e-014 -2.14687e-014
lhumerus -126.221 207.688 -108.78
lradius 74.2169
lwrist 23.6851
lhand -22.171 365.279
lfingers 7.12502
lthumb 4.24366 35.2166
rfemur 10.1655 14.2261 17.0479
rtibia 26.7379
rfoot -28.7238 -23.3611
rtoes -1.27911
lfemur -6.71147 -14.0135 -18.4497
ltibia 39.9075
lfoot -4.35675 -0.422906
ltoes 10.8974
200
root -0.505411 17.731 0.205612 -30.1164 -82.7529 20.4655
lowerback 9.03329 1.14864 1.42553
upperback -4.44777 1.22883 -4.60915
thorax -9.72426 0.286228 -5.98415
lowerneck 13.6053 -2.90275 0.636272
upperneck 6.18027 -4.10327 2.10156
head -0.275173 -2.20555 0.717096
rclavicle -1.05356e-014 -5.56597e-015
rhumerus -89.6517 -179.259 34.9425
rradius 7.56165
rwrist 109.231
rhand -13.9397 368.703
rfingers 7.12502
rthumb 12.1873 -20.9218
lclavicle -1.05356e-014 -5.56597e-015
lhumerus -126.573 207.693 -108.849
lradius 74.3148
lwrist 23.2855
lhand -22.1806 365.208
lfingers 7.12502
lthumb 4.23433 35.1457
rfemur 10.1894 14.1669 17.0351
rtibia 26.7449
rfoot -28.7519 -23.1911
rtoes -1.31154
lfemur -6.64317 -13.9337 -18.4636
ltibia 39.9565
lfoot -4.69085 -0.515898
ltoes 10.7417
201
root -0.493151 17.7212 0.20575 -30.2626 -82.8383 20.5623
lowerback 9.07704 1.10828 1.41776
upperback -4.38791 1.17873 -4.58333
thorax -9.69015 0.26609 -5.94216
lowerneck 13.7049 -2.86471 0.782528
upperneck 6.27961 -4.03818 2.00856
head -0.264234 -2.17143 0.661851
rclavicle -1.90833e-014 1.27222e-014
rhumerus -89.9278 -178.645 40.6387
rradius 7.32719
rwrist 103.418
rhand -14.167 368.749
rfingers 7.12502
rthumb 11.9681 -20.8889
lclavicle -1.90833e-014 1.27222e-014
lhumerus -126.999 207.703 -108.867
lradius 74.4425
lwrist 22.8843
lhand -22.1407 365.105
lfingers 7.12502
lthumb 4.27295 35.0416
rfemur 10.2336 14.113 17.0469
rtibia 26.7359
rfoot -28.7771 -23.08
rtoes -1.4178
lfemur -6.57468 -13.8489 -18.4648
ltibia 40.0075
lfoot -5.01908 -0.616225
ltoes 10.6689
202
root -0.481598 17.7147 0.205344 -30.278 -82.9312 20.553
lowerback 9.09167 1.05751 1.4268
upperback -4.33039 1.11694 -4.55829
thorax -9.64241 0.239467 -5.90755
lowerneck 13.75 -2.82096 0.909218
upperneck 6.38922 -3.96833 1.91386
head -0.240754 -2.13444 0.607906
rclavicle 1.98785e-016 0
rhumerus -90.2879 -178.09 46.3158
rradius 7.14178
rwrist 97.561
rhand -14.3598 368.843
rfingers 7.12502
rthumb 11.7822 -20.8057
lclavicle 1.98785e-016 0
lhumerus -127.457 207.685 -108.855
lradius 74.6153
lwrist 22.4842
lhand -22.0453 364.972
lfingers 7.12502
lthumb 4.36501 34.907
rfemur 10.2614 14.1383 17.1029
rtibia 26.7188
rfoot -28.9093 -22.9625
rtoes -1.43697
lfemur -6.52513 -13.7874 -18.4415
ltibia 40.0526
lfoot -5.37008 -0.740042
ltoes 10.5031
203
root -0.470004 17.7062 0.20474 -30.3442 -83.0236 20.579
lowerback 9.12859 1.01847 1.42197
upperback -4.27537 1.06925 -4.52889
thorax -9.60925 0.220291 -5.86368
lowerneck 13.736 -2.78277 1.0171
upperneck 6.54938 -3.91158 1.83819
head -0.190639 -2.10411 0.561735
rclavicle 3.95581e-014 -5.32743e-014
rhumerus -90.7743 -177.582 52.0236
rradius 7.09968
rwrist 91.6807
rhand -14.5331 369.017
rfingers 7.12502
rthumb 11.615 -20.6406
lclavicle 3.95581e-014 -5.32743e-014
lhumerus -127.907 207.676 -108.87
lradius 74.8098
lwrist 22.153
lhand -21.9394 364.897
lfingers 7.12502
lthumb 4.46731 34.8302
rfemur 10.3 14.1376 17.1431
rtibia 26.6974
rfoot -28.9981 -22.8617
rtoes -1.47592
lfemur -6.45262 -13.7423 -18.4269
ltibia 40.0932
lfoot -5.71398 -0.829708
ltoes 10.3954
204
root -0.458941 17.7 0.204337 -30.4559 -83.1014 20.6581
lowerback 9.14758 0.971846 1.40252
upperback -4.21476 1.01017 -4.49513
thorax -9.56077 0.197216 -5.80373
lowerneck 13.6693 -2.73773 1.07254
upperneck 6.74228 -3.85454 1.75902
head -0.120797 -2.07398 0.521815
rclavicle -2.5842e-015 0
rhumerus -91.3753 -177.156 57.7429
rradius 7.18971
rwrist 85.8387
rhand -14.6572 369.225
rfingers 7.12502
rthumb 11.4954 -20.44
lclavicle -2.5842e-015 0
lhumerus -128.357 207.633 -108.887
lradius 75.0324
lwrist 21.839
lhand -21.8114 364.77
lfingers 7.12502
lthumb 4.59089 34.7005
rfemur 10.3336 14.14 17.172
rtibia 26.6717
rfoot -29.0867 -22.792
rtoes -1.6215
lfemur -6.37962 -13.736 -18.4338
ltibia 40.1268
lfoot -6.08142 -0.903503
ltoes 10.2282
205
root -0.447886 17.693 0.203301 -30.4343 -83.1833 20.5968
lowerback 9.18028 0.922256 1.39545
upperback -4.15165 0.948347 -4.46533
thorax -9.51771 0.171698 -5.75528
lowerneck 13.5741 -2.70239 1.16164
upperneck 6.90892 -3.80419 1.68117
head -0.0553408 -2.04598 0.477078
rclavicle -2.46493e-014 2.54444e-014
rhumerus -92.0514 -176.802 63.4517
rradius 7.40097
rwrist 80.0305
rhand -14.686 369.489
rfingers 7.12502
rthumb 11.4676 -20.1772
lclavicle -2.46493e-014 2.54444e-014
lhumerus -128.802 207.584 -108.907
lradius 75.2736
lwrist 21.583
lhand -21.6287 364.658
lfingers 7.12502
lthumb 4.76729 34.5844
rfemur 10.3623 14.1319 17.2143
rtibia 26.6577
rfoot -29.1391 -22.7183
rtoes -1.65527
lfemur -6.3123 -13.6895 -18.4067
ltibia 40.1586
lfoot -6.41943 -1.01625
ltoes 10.1267
206
root -0.436788 17.6875 0.202917 -30.4447 -83.2655 20.5746
lowerback 9.22189 0.873917 1.39381
upperback -4.10269 0.8886 -4.43265
thorax -9.49518 0.146097 -5.70814
lowerneck 13.538 -2.67238 1.24011
upperneck 6.96861 -3.75469 1.56315
head -0.0341244 -2.01805 0.424414
rclavicle -1.78906e-014 -2.70347e-014
rhumerus -92.8648 -176.532 69.1796
rradius 7.78611
rwrist 74.2304
rhand -14.6349 369.736
rfingers 7.12502
rthumb 11.5169 -19.9275
lclavicle -1.78906e-014 -2.70347e-014
lhumerus -129.289 207.527 -108.9
lradius 75.5705
lwrist 21.3926
lhand -21.4769 364.546
lfingers 7.12502
lthumb 4.91386 34.4693
rfemur 10.3754 14.1485 17.2608
rtibia 26.6486
rfoot -29.1613 -22.7075
rtoes -1.78791
lfemur -6.24764 -13.6343 -18.3837
ltibia 40.1856
lfoot -6.73094 -1.10599
ltoes 9.95304
207
root -0.426253 17.6806 0.202372 -30.3934 -83.3367 20.4738
lowerback 9.28359 0.833329 1.39654
upperback -4.05359 0.839952 -4.39838
thorax -9.48303 0.125424 -5.6644
lowerneck 13.5439 -2.65309 1.27019
upperneck 6.9583 -3.72313 1.49871
head -0.0401227 -2.00089 0.398622
rclavicle 2.78299e-015 -1.35174e-014
rhumerus -93.7713 -176.349 74.936
rradius 8.32391
rwrist 68.4672
rhand -14.5595 369.976
rfingers 7.12502
rthumb 11.5895 -19.6838
lclavicle 2.78299e-015 -1.35174e-014
lhumerus -129.795 207.498 -108.852
lradius 75.8817
lwrist 21.19
lhand -21.3246 364.458
lfingers 7.12502
lthumb 5.06097 34.3772
rfemur 10.3919 14.1567 17.3079
rtibia 26.6558
rfoot -29.1982 -22.7088
rtoes -1.9454
lfemur -6.16246 -13.6211 -18.3698
ltibia 40.2029
lfoot -7.04512 -1.18166
ltoes 9.73568
208
root -0.416498 17.6747 0.201621 -30.294 -83.429 20.3341
lowerback 9.32456 0.784146 1.40555
upperback -4.00812 0.780973 -4.36055
thorax -9.46368 0.0996079 -5.61795
lowerneck 13.5744 -2.62369 1.33233
upperneck 6.90761 -3.67065 1.39874
head -0.0641466 -1.97215 0.356752
rclavicle -1.61016e-014 2.38542e-014
rhumerus -94.7858 -176.334 80.6679
rradius 9.01965
rwrist 62.6931
rhand -14.3904 370.138
rfingers 7.12502
rthumb 11.7527 -19.512
lclavicle -1.61016e-014 2.38542e-014
lhumerus -130.316 207.426 -108.831
lradius 76.2562
lwrist 21.0912
lhand -21.1991 364.344
lfingers 7.12502
lthumb 5.18208 34.2608
rfemur 10.3819 14.1444 17.3514
rtibia 26.672
rfoot -29.1523 -22.7201
rtoes -2.15192
lfemur -6.08219 -13.567 -18.3301
ltibia 40.2138
lfoot -7.34321 -1.28117
ltoes 9.56319
209
root -0.406293 17.6682 0.200896 -30.2959 -83.504 20.2935
lowerback 9.37213 0.732304 1.38881
upperback -3.97263 0.714428 -4.32209
thorax -9.46018 0.0710544 -5.55537
lowerneck 13.6118 -2.59093 1.35101
upperneck 6.88438 -3.62192 1.3212
head -0.079416 -1.94685 0.328812
rclavicle 2.0276e-014 9.54166e-015
rhumerus -95.8655 -176.472 86.4001
rradius 9.81527
rwrist 56.9544
rhand -14.2607 370.179
rfingers 7.12502
rthumb 11.8778 -19.4641
lclavicle 2.0276e-014 9.54166e-015
lhumerus -130.91 207.359 -108.768
lradius 76.6707
lwrist 20.9877
lhand -21.1478 364.248
lfingers 7.12502
lthumb 5.23164 34.1632
rfemur 10.3584 14.0998 17.3614
rtibia 26.7142
rfoot -29.1003 -22.715
rtoes -2.45956
lfemur -5.99728 -13.515 -18.311
ltibia 40.2072
lfoot -7.60148 -1.37694
ltoes 9.42055
